<svg id="visual" viewBox="0 0 900 600" width="900" height="600" xmlns="http://www.w3.org/2000/svg" xmlns:xlink="http://www.w3.org/1999/xlink" version="1.1"><rect x="0" y="0" width="900" height="600" fill="#001220"></rect><defs><linearGradient id="grad1_0" x1="33.3%" y1="0%" x2="100%" y2="100%"><stop offset="20%" stop-color="#001220" stop-opacity="1"></stop><stop offset="80%" stop-color="#001220" stop-opacity="1"></stop></linearGradient></defs><defs><linearGradient id="grad2_0" x1="0%" y1="0%" x2="66.7%" y2="100%"><stop offset="20%" stop-color="#001220" stop-opacity="1"></stop><stop offset="80%" stop-color="#001220" stop-opacity="1"></stop></linearGradient></defs><g transform="translate(900, 0)"><path d="M0 486.7C-70.1 487.4 -140.1 488.1 -186.3 449.7C-232.4 411.3 -254.7 334 -280 280C-305.3 226 -333.7 195.5 -368.6 152.7C-403.6 109.9 -445.2 55 -486.7 0L0 0Z" fill="#FBAE3C"></path></g><g transform="translate(0, 600)"><path d="M0 -486.7C62.4 -468.6 124.8 -450.4 173.7 -419.4C222.7 -388.5 258.2 -344.9 306.9 -306.9C355.6 -268.9 417.5 -236.5 449.7 -186.3C481.9 -136.1 484.3 -68 486.7 0L0 0Z" fill="#FBAE3C"></path></g></svg>